PathFileType	4	(X/Y/Z)	/Users/visionmauri/2_5_3_f_1_Sports2D/2_5_3_f_1_Sports2D_m_person00.trc
DataRate	CameraRate	NumFrames	NumMarkers	Units	OrigDataRate	OrigDataStartFrame	OrigNumFrames
30.0	30.0	9	22	m	30.0	255	341
Frame#	Time	Hip			RHip			RKnee			RAnkle			RBigToe			RSmallToe			RHeel			LHip			LKnee			LAnkle			LBigToe			LSmallToe			LHeel			Neck			Head			Nose			RShoulder			RElbow			RWrist			LShoulder			LElbow			LWrist			
		X1	Y1	Z1	X2	Y2	Z2	X3	Y3	Z3	X4	Y4	Z4	X5	Y5	Z5	X6	Y6	Z6	X7	Y7	Z7	X8	Y8	Z8	X9	Y9	Z9	X10	Y10	Z10	X11	Y11	Z11	X12	Y12	Z12	X13	Y13	Z13	X14	Y14	Z14	X15	Y15	Z15	X16	Y16	Z16	X17	Y17	Z17	X18	Y18	Z18	X19	Y19	Z19	X20	Y20	Z20	X21	Y21	Z21	X22	Y22	Z22
255	8.525	1.0314924186258352	0.8120331884673062	0.0301	0.9322540350092818	0.7959144904933035	0.0301	0.8750206852037493	0.4238238930690669	0.129	0.8960431322315479	0.07740792161751539	0.023	0.822731200615333	-0.055764657539658154	0.2179	0.7842528204542407	-0.029696748250453108	0.1804	0.9307978946440147	0.01922470271117952	-0.0119	1.1279383108225296	0.781799063773668	0.0301	1.1031688480852504	0.4220095534852243	0.129	1.0665375319217794	0.04030797867636535	0.023	1.0520166469534449	-0.1034086636834991	0.2179	1.1130996974448388	-0.09875103839181298	0.1804	1.0409114256399397	-0.012732642664379776	-0.0119	1.1008185651244917	1.41356532065088	0.0008	1.1119185924367712	1.678774051393078	0.0655	1.079849767528441	1.510291502486767	0.1076	0.9099096005627815	1.3622590183595722	-0.01275	0.812695273393805	1.0991204524631193	0.0702	0.7499940726854328	0.9161734023048238	0.1076	1.2739888368968042	1.3189175793636436	-0.01275	1.3496781305904113	1.049026813343233	0.0702	1.4029631960534739	0.8786591454528705	0.1076
256	8.55843137254902	1.0338121760541186	0.8114738439955025	0.0301	0.9323123078119034	0.7953977748083659	0.0301	0.874995144993501	0.42020683562244715	0.129	0.8799881643097074	0.04901579112034542	0.023	0.8096458569396181	-0.07441072220112843	0.2179	0.7694975637135304	-0.05476230992762492	0.1804	0.9125435249840593	-0.015132096687442314	-0.0119	1.1299672048893747	0.7818666571751841	0.0301	1.1018908837483377	0.4180751410397814	0.129	1.0662046056073284	0.03478987313429529	0.023	1.053365355929932	-0.10115294277861184	0.2179	1.1134865714727498	-0.09645581091517269	0.1804	1.0404477978154718	-0.02110530691081857	-0.0119	1.1040994159437052	1.4172401709590225	0.0008	1.1124966715276146	1.683922940840559	0.0655	1.0739196281019419	1.5168647525384462	0.1076	0.9091483829423618	1.3636735633385717	-0.01275	0.8123886190008798	1.0998034692517997	0.0702	0.7526577734289032	0.9164077365432594	0.1076	1.2774292482387872	1.3214756339657951	-0.01275	1.3500881436175807	1.0501638438839727	0.0702	1.4034633833821633	0.8741124932649981	0.1076
257	8.59186274509804	1.035631502840384	0.8113504734156219	0.0301	0.9339727704351664	0.7929704366209783	0.0301	0.8779099036232247	0.4160693395330869	0.129	0.8683301856129013	0.029325023855895756	0.023	0.799157149193665	-0.08323384293898752	0.2179	0.7578165578884543	-0.0679248872633702	0.1804	0.8987327229334653	-0.039752536652508164	-0.0119	1.1320934634573332	0.7785765347208888	0.0301	1.1012954273797684	0.41432784974301395	0.129	1.0665213257169683	0.030346081044197	0.023	1.0540126222477262	-0.09964572741732114	0.2179	1.113816977048534	-0.09517089516368031	0.1804	1.0410615856023633	-0.02875932207090557	-0.0119	1.1052670226539034	1.4205145579213307	0.0008	1.1137655774611008	1.6865020316566834	0.0655	1.069844185148454	1.5195633941051034	0.1076	0.9076393701016755	1.3636458730847518	-0.01275	0.8119401065658357	1.1005972474198755	0.0702	0.7532293559082812	0.9150218165005767	0.1076	1.2791236600143165	1.3255234390260808	-0.01275	1.349320483216426	1.0511213583248722	0.0702	1.404418007893226	0.8726500674119313	0.1076
258	8.625294117647059	1.0359177740163497	0.8126683281405419	0.0301	0.9348671067810942	0.7911572276764263	0.0301	0.8842456438103189	0.4137527969281984	0.129	0.8619919061447042	0.01917601998854079	0.023	0.7912759260845363	-0.08089318544498755	0.2179	0.7498194454737718	-0.06784436827428009	0.1804	0.8907159513981714	-0.05522500969672792	-0.0119	1.1328103220869101	0.7748875598747745	0.0301	1.1006325663685383	0.41172486907530903	0.129	1.0662326133013376	0.0275521903246603	0.023	1.053532018348429	-0.09856556883405067	0.2179	1.113460752477745	-0.0956486219523818	0.1804	1.0420300969451275	-0.0349316610328903	-0.0119	1.104766717860511	1.4222253767874729	0.0008	1.1142920318838572	1.6878122105300273	0.0655	1.062129333507675	1.518621982774306	0.1076	0.9065404236125016	1.3638930009502384	-0.01275	0.8116632533232399	1.1017919945300454	0.0702	0.7515689151599381	0.9142360109591946	0.1076	1.278355661148341	1.3286988837343616	-0.01275	1.3477427225202014	1.0511410687242426	0.0702	1.4057330672007136	0.8729592323938972	0.1076
259	8.658725490196078	1.0355056946949917	0.8146168442177744	0.0301	0.9344758546141521	0.7907137453473791	0.0301	0.891775686968556	0.4124916521630963	0.129	0.8594938265299599	0.014557941422432708	0.023	0.7879639496016885	-0.07272782459007619	0.2179	0.7463885127890425	-0.06176808900971075	0.1804	0.8862844242389915	-0.065590765237313	-0.0119	1.1325134418598604	0.7737764213922869	0.0301	1.0995866914905612	0.41005082605923776	0.129	1.0654853181226767	0.026302747130464103	0.023	1.0524508764686114	-0.09744022605792041	0.2179	1.1124761772786873	-0.09689593678368749	0.1804	1.0427789559458223	-0.038167908262301944	-0.0119	1.1038021150003692	1.4229136905142694	0.0008	1.113186297298672	1.6907719012692535	0.0655	1.0526861348642107	1.517197662387873	0.1076	0.9058605604542241	1.3654720734434738	-0.01275	0.8110013082006313	1.1051688377679054	0.0702	0.7495224147832139	0.9154480339243901	0.1076	1.2759711452732658	1.3298496015303614	-0.01275	1.3457752346706284	1.0516866040145423	0.0702	1.406514870361097	0.8725645555955139	0.1076
260	8.692156862745097	1.0352794162323207	0.8142002996217793	0.0301	0.9338893132922911	0.7894976312574452	0.0301	0.8976450639147189	0.41020987946619913	0.129	0.8598811965753616	0.011074025554225701	0.023	0.791104706739364	-0.06774322907751226	0.2179	0.7486780805215798	-0.05926416377833114	0.1804	0.8849767098589035	-0.07423846621691253	-0.0119	1.1319150307197572	0.7743889908641888	0.0301	1.0993731010761851	0.40763004789959756	0.129	1.0654591900668464	0.025588791722235906	0.023	1.0512681904908123	-0.09747363061259612	0.2179	1.1108823122950033	-0.09874049236682907	0.1804	1.0430139435537291	-0.039277293997740104	-0.0119	1.1015452030885178	1.4241593366184755	0.0008	1.1111446771158615	1.6957430054981377	0.0655	1.0489743060230177	1.5174733348463079	0.1076	0.9041592981674106	1.3676257720015872	-0.01275	0.8094078042178883	1.1099044808192244	0.0702	0.7479853984744553	0.9168599660821538	0.1076	1.2729609291992428	1.3308762022980143	-0.01275	1.343337891718854	1.0542697963924463	0.0702	1.4054105861235884	0.8708140108266124	0.1076
261	8.725588235294119	1.0349170979701254	0.8105211762964617	0.0301	0.9337492531027948	0.78682641900872	0.0301	0.9002712264029857	0.40579688645883455	0.129	0.8630050910597281	0.006521526995772507	0.023	0.8016047151301638	-0.07267216720589306	0.2179	0.7567928068616542	-0.06491921357322682	0.1804	0.8870343624684506	-0.08108071368810603	-0.0119	1.1308314676368754	0.7746636047444073	0.0301	1.1001096368066519	0.40422244390264633	0.129	1.065568633603351	0.025296896942908792	0.023	1.0505320262605766	-0.09979334617304378	0.2179	1.1087646778002176	-0.10114613970780909	0.1804	1.0423004316591091	-0.03975952756109761	-0.0119	1.0965960718037298	1.4271231027935753	0.0008	1.1088538247428774	1.7018095966218088	0.0655	1.0515325554073598	1.5211712575694163	0.1076	0.8998222781690798	1.3695196138259007	-0.01275	0.8069999528687876	1.1128277833291056	0.0702	0.746058929796409	0.91731691776502	0.1076	1.2694361291976386	1.333769131552659	-0.01275	1.34030638530379	1.0578126102150847	0.0702	1.4027290672560822	0.86848620801124	0.1076
262	8.759019607843138	1.0337468859032193	0.8070686466592225	0.0301	0.93362186343033	0.7846510816524442	0.0301	0.9007305078913646	0.4001848719442792	0.129	0.8687183658200807	0.0005579096072279853	0.023	0.818763796697265	-0.08772970950812395	0.2179	0.7688496727033481	-0.07805829780031583	0.1804	0.8908570162100122	-0.08539197720050463	-0.0119	1.1294633228645536	0.7741717311933345	0.0301	1.1003740930910986	0.40216415330043115	0.129	1.0645311762996832	0.025925953445023558	0.023	1.0517816556560802	-0.1037087756605253	0.2179	1.1081507039553375	-0.10259168397219642	0.1804	1.0406704640632578	-0.039974272845437114	-0.0119	1.089894391311727	1.43128808124172	0.0008	1.1050985697000848	1.7079717301124582	0.0655	1.0544209945925072	1.5278655368407592	0.1076	0.8927014126638068	1.3712471871500689	-0.01275	0.8039387084619057	1.1127380225785821	0.0702	0.7435354324575638	0.9177307054757737	0.1076	1.2650824570392316	1.3376240394849157	-0.01275	1.3371677734084304	1.0597190358836006	0.0702	1.4005649347287799	0.866979969268907	0.1076
263	8.792450980392157	1.0318659672302084	0.8063034042028772	0.0301	0.9327782743763411	0.7844594639025794	0.0301	0.9020043165474599	0.39608193049921386	0.129	0.8756659698203931	-0.005967418969023035	0.023	0.8388231976178836	-0.10597131768158093	0.2179	0.7814719794329743	-0.09432440458751358	0.1804	0.8942821107640969	-0.08857653994555133	-0.0119	1.128561152166625	0.7736154619065703	0.0301	1.0995854121208448	0.40335445076375126	0.129	1.0632670094915317	0.026977393267129546	0.023	1.0556702844691528	-0.10697505969901588	0.2179	1.1109859866402512	-0.10141524918806605	0.1804	1.0397352683217866	-0.03995181989940386	-0.0119	1.0838061141606157	1.4352618305065563	0.0008	1.098689453025299	1.7134910053339412	0.0655	1.0546522937051221	1.534748369124262	0.1076	0.884626698538002	1.3730034137977267	-0.01275	0.8001030343325135	1.1113928737033199	0.0702	0.741565508494054	0.9181893338093302	0.1076	1.2603424375749075	1.340103637041942	-0.01275	1.334282801159294	1.0594274782370234	0.0702	1.3994866163157385	0.8674155771774847	0.1076
